<?xml version="1.0" encoding="UTF-8" standalone="no"?>
<svg
   xmlns:dc="http://purl.org/dc/elements/1.1/"
   xmlns:cc="http://creativecommons.org/ns#"
   xmlns:rdf="http://www.w3.org/1999/02/22-rdf-syntax-ns#"
   xmlns:svg="http://www.w3.org/2000/svg"
   xmlns="http://www.w3.org/2000/svg"
   xmlns:sodipodi="http://sodipodi.sourceforge.net/DTD/sodipodi-0.dtd"
   xmlns:inkscape="http://www.inkscape.org/namespaces/inkscape"
   viewBox="0 0 512 512"
   version="1.1"
   id="svg4"
   sodipodi:docname="certificate.svg"
   inkscape:version="0.92.2 (5c3e80d, 2017-08-06)">
  <metadata
     id="metadata10">
    <rdf:RDF>
      <cc:Work
         rdf:about="">
        <dc:format>image/svg+xml</dc:format>
        <dc:type
           rdf:resource="http://purl.org/dc/dcmitype/StillImage" />
      </cc:Work>
    </rdf:RDF>
  </metadata>
  <defs
     id="defs8" />
  <sodipodi:namedview
     pagecolor="#ffffff"
     bordercolor="#666666"
     borderopacity="1"
     objecttolerance="10"
     gridtolerance="10"
     guidetolerance="10"
     inkscape:pageopacity="0"
     inkscape:pageshadow="2"
     inkscape:window-width="1920"
     inkscape:window-height="1003"
     id="namedview6"
     showgrid="false"
     inkscape:zoom="0.4609375"
     inkscape:cx="-100.88136"
     inkscape:cy="256"
     inkscape:window-x="-9"
     inkscape:window-y="-9"
     inkscape:window-maximized="1"
     inkscape:current-layer="svg4" />
  <path
     d="M458.622 255.92l45.985-45.005c13.708-12.977 7.316-36.039-10.664-40.339l-62.65-15.99 17.661-62.015c4.991-17.838-11.829-34.663-29.661-29.671l-61.994 17.667-15.984-62.671C337.085.197 313.765-6.276 300.99 7.228L256 53.57 211.011 7.229c-12.63-13.351-36.047-7.234-40.325 10.668l-15.984 62.671-61.995-17.667C74.87 57.907 58.056 74.738 63.046 92.572l17.661 62.015-62.65 15.99C.069 174.878-6.31 197.944 7.392 210.915l45.985 45.005-45.985 45.004c-13.708 12.977-7.316 36.039 10.664 40.339l62.65 15.99-17.661 62.015c-4.991 17.838 11.829 34.663 29.661 29.671l61.994-17.667 15.984 62.671c4.439 18.575 27.696 24.018 40.325 10.668L256 458.61l44.989 46.001c12.5 13.488 35.987 7.486 40.325-10.668l15.984-62.671 61.994 17.667c17.836 4.994 34.651-11.837 29.661-29.671l-17.661-62.015 62.65-15.99c17.987-4.302 24.366-27.367 10.664-40.339l-45.984-45.004z"
     id="path2" />
  <path
     style="fill:#0000ff;fill-opacity:1;stroke:#999999;stroke-width:2.16949153"
     d="m 187.25499,509.39934 c -3.80282,-0.9854 -8.68411,-4.05942 -10.84731,-6.83112 -2.16321,-2.77172 -7.72159,-20.22725 -12.35196,-38.79005 l -8.41886,-33.75058 -14.3608,4.15969 C 91.901247,448.489 85.160554,449.83912 77.980598,446.8651 70.733705,443.86332 62.937131,433.4108 62.923364,426.6785 62.917072,423.5922 77.041827,371.36529 81.307576,358.70215 81.855846,357.07457 70.177835,353.23811 48.28851,347.85469 29.661464,343.27359 12.164664,337.75553 9.4067306,335.59233 3.7811044,331.17982 0.30528803,320.58329 1.8015883,312.40693 2.4120103,309.07134 12.906282,297.16493 29.058104,281.4827 L 55.322034,255.98232 29.076866,230.36629 C 13.631211,215.29088 2.4155429,202.57328 1.82035,199.45973 c -1.41543979,-7.4044 1.6898621,-17.96942 6.5832477,-22.39787 2.2716053,-2.05578 19.6952273,-7.834 38.7191573,-12.84049 l 34.588967,-9.10273 -9.574721,-34.40338 C 61.920232,84.00489 61.750767,79.068956 70.40986,70.40986 c 8.854958,-8.854955 14.250238,-8.752835 47.88654,0.906388 29.54304,8.483773 37.90699,10.240206 37.90699,7.960478 0,-6.338184 18.1146,-67.841183 20.88208,-70.8992241 4.93107,-5.4487664 15.54789,-8.08951926 23.5925,-5.8682307 4.19073,1.1571517 15.20178,10.8807468 30.92026,27.3049468 l 24.41181,25.507816 24.43032,-25.495613 c 15.57478,-16.253897 26.77919,-26.1514627 30.91025,-27.3049449 8.00653,-2.23560112 18.63046,0.4046265 23.56391,5.8560258 2.76749,3.0580411 20.88209,64.5610401 20.88209,70.8992241 0,2.279728 8.36395,0.523295 37.907,-7.960478 33.6363,-9.659223 39.03157,-9.761343 47.88652,-0.906388 8.75867,8.758656 8.59077,13.773981 -1.68871,50.44338 l -9.60558,34.2654 34.53805,9.06008 c 18.99594,4.98304 36.41786,10.76126 38.71538,12.84049 4.93516,4.46624 8.05068,15.01074 6.63037,22.44052 -0.59517,3.11355 -11.81086,15.83115 -27.25651,30.90656 l -26.24516,25.61603 26.26393,25.50038 c 16.15182,15.68223 26.64608,27.58864 27.25651,30.92423 1.4963,8.17636 -1.97951,18.77289 -7.60513,23.1854 -2.75794,2.1632 -20.25474,7.68126 -38.88178,12.26236 -21.88934,5.38342 -33.56735,9.21988 -33.01907,10.84746 4.26574,12.66314 18.39052,64.89005 18.3842,67.97635 -0.013,6.7323 -7.81034,17.18482 -15.05722,20.1866 -7.17996,2.97402 -13.92065,1.6239 -63.29546,-12.67782 l -14.36082,-4.15969 -8.41884,33.93536 c -10.03019,40.4304 -13.60126,45.86756 -30.1253,45.86756 -10.07397,0 -10.19505,-0.0894 -35.96056,-26.57627 l -25.85255,-26.57627 -25.49448,26.24019 c -26.35702,27.12802 -30.64047,29.7503 -43.25641,26.48118 z"
     id="path12"
     inkscape:connector-curvature="0" />
  <text
     xml:space="preserve"
     style="font-style:normal;font-weight:normal;font-size:40px;line-height:1.25;font-family:sans-serif;letter-spacing:0px;word-spacing:0px;fill:#000000;fill-opacity:1;stroke:none"
     x="80.271194"
     y="242.98305"
     id="text16"><tspan
       sodipodi:role="line"
       id="tspan14"
       x="80.271194"
       y="242.98305"
       style="font-style:normal;font-variant:normal;font-weight:bold;font-stretch:normal;font-size:53.33333206px;font-family:sans-serif;-inkscape-font-specification:'sans-serif Bold';fill:#ffffff">30 бел. руб.</tspan><tspan
       sodipodi:role="line"
       x="80.271194"
       y="309.64972"
       id="tspan18"
       style="font-style:normal;font-variant:normal;font-weight:bold;font-stretch:normal;font-size:53.33333206px;font-family:sans-serif;-inkscape-font-specification:'sans-serif Bold';fill:#ffffff">     за м²</tspan></text>
  <flowRoot
     xml:space="preserve"
     id="flowRoot20"
     style="fill:black;fill-opacity:1;stroke:none;font-family:sans-serif;font-style:normal;font-weight:normal;font-size:40px;line-height:1.25;letter-spacing:0px;word-spacing:0px"><flowRegion
       id="flowRegion22"><rect
         id="rect24"
         width="15.18644"
         height="60.745762"
         x="308.06781"
         y="266.84744" /></flowRegion><flowPara
       id="flowPara26"></flowPara></flowRoot></svg>
