<?xml version="1.0" encoding="UTF-8" standalone="no"?>
<!-- Generator: Adobe Illustrator 21.1.0, SVG Export Plug-In . SVG Version: 6.00 Build 0)  -->

<svg
   xmlns:dc="http://purl.org/dc/elements/1.1/"
   xmlns:cc="http://creativecommons.org/ns#"
   xmlns:rdf="http://www.w3.org/1999/02/22-rdf-syntax-ns#"
   xmlns:svg="http://www.w3.org/2000/svg"
   xmlns="http://www.w3.org/2000/svg"
   xmlns:xlink="http://www.w3.org/1999/xlink"
   xmlns:sodipodi="http://sodipodi.sourceforge.net/DTD/sodipodi-0.dtd"
   xmlns:inkscape="http://www.inkscape.org/namespaces/inkscape"
   version="1.1"
   id="Ebene_1"
   x="0px"
   y="0px"
   viewBox="0 0 40 39.8"
   style="enable-background:new 0 0 40 39.8;"
   xml:space="preserve"
   sodipodi:docname="star.svg"
   inkscape:version="0.92.2 (5c3e80d, 2017-08-06)"><metadata
     id="metadata3743"><rdf:RDF><cc:Work
         rdf:about=""><dc:format>image/svg+xml</dc:format><dc:type
           rdf:resource="http://purl.org/dc/dcmitype/StillImage" /></cc:Work></rdf:RDF></metadata><defs
     id="defs3741" /><sodipodi:namedview
     pagecolor="#ffffff"
     bordercolor="#666666"
     borderopacity="1"
     objecttolerance="10"
     gridtolerance="10"
     guidetolerance="10"
     inkscape:pageopacity="0"
     inkscape:pageshadow="2"
     inkscape:window-width="1920"
     inkscape:window-height="1003"
     id="namedview3739"
     showgrid="false"
     inkscape:zoom="20.351759"
     inkscape:cx="3.8343216"
     inkscape:cy="20.02284"
     inkscape:window-x="-9"
     inkscape:window-y="-9"
     inkscape:window-maximized="1"
     inkscape:current-layer="g3734" /><style
     type="text/css"
     id="style3722">
	.st0{clip-path:url(#SVGID_2_);fill:#F9B115;}
</style><g
     id="g3736"><g
       id="g3734"><g
         id="g3732"><defs
           id="defs3725"><rect
             id="SVGID_1_"
             x="0"
             width="39.8"
             height="39.8" /></defs><clipPath
           id="SVGID_2_"><use
             xlink:href="#SVGID_1_"
             style="overflow:visible;"
             id="use3727" /></clipPath><path
           class="st0"
           d="M39.1,17.9c0.8-0.8,1.1-1.9,0.7-2.9c-0.3-1-1.2-1.8-2.3-1.9l-9.7-1.4c-0.4-0.1-0.8-0.3-0.9-0.7l-4.3-8.8     c-0.5-1-1.5-1.6-2.6-1.6s-2.1,0.6-2.6,1.6L13.1,11c-0.2,0.4-0.5,0.6-1,0.7l-9.7,1.4c-1.1,0.2-2,0.9-2.3,1.9S0,17.2,0.8,17.9     l7,6.8c0.3,0.3,0.4,0.7,0.4,1.1l-1.7,9.6c-0.2,1.1,0.3,2.2,1.1,2.8c0.9,0.6,2,0.7,3,0.2l8.7-4.6c0.4-0.2,0.8-0.2,1.2,0l8.6,4.6     c0.4,0.2,0.9,0.3,1.3,0.3c0.6,0,1.2-0.2,1.7-0.6c0.9-0.6,1.3-1.7,1.1-2.8l-1.7-9.6c-0.1-0.4,0.1-0.8,0.4-1.1L39.1,17.9z      M30.1,26.2l1.7,9.6c0.1,0.5-0.1,0.9-0.5,1.2s-0.9,0.3-1.3,0.1l-8.7-4.5c-0.4-0.2-0.9-0.3-1.3-0.3s-0.9,0.1-1.3,0.3l-8.6,4.5     c-0.4,0.2-0.9,0.2-1.3-0.1c-0.4-0.3-0.6-0.8-0.5-1.2l1.7-9.6c0.2-0.9-0.1-1.9-0.8-2.5l-7-6.8c-0.4-0.3-0.5-0.8-0.3-1.3     s0.5-0.8,1-0.9l9.7-1.4c0.9-0.1,1.7-0.7,2.2-1.6l4.3-8.8c0.2-0.4,0.6-0.7,1.1-0.7s0.9,0.3,1.1,0.7l4.3,8.8     c0.4,0.8,1.2,1.4,2.2,1.6l9.7,1.4c0.5,0.1,0.9,0.4,1,0.9c0.2,0.5,0,1-0.3,1.3l-7,6.8C30.3,24.3,30,25.2,30.1,26.2L30.1,26.2z"
           clip-path="url(#SVGID_2_)"
           id="path3730"
           style="fill:#999999;fill-opacity:1" /></g><g
         inkscape:groupmode="layer"
         id="layer1"
         inkscape:label="sss" /><path
         style="fill:#2a7fff;fill-opacity:1;stroke:#999999;stroke-width:0.0491358"
         d="M 8.852422,38.66859 C 8.475602,38.610598 7.9729678,38.413865 7.6443677,38.195753 7.1802643,37.887699 6.7367326,37.230567 6.5699741,36.603944 6.4178639,36.032364 6.4477094,35.807927 7.3618073,30.649387 8.0259367,26.901498 8.2196929,25.715513 8.1983291,25.529026 8.1362947,24.987528 8.1831413,25.038652 4.2559766,21.226666 2.2092632,19.23998 0.51325434,17.554803 0.42153804,17.416719 0.15634803,17.017457 0.04695805,16.650334 0.02210415,16.076183 -0.01865005,15.134719 0.18624686,14.557634 0.76862735,13.973629 1.1470619,13.594138 1.6040654,13.327647 2.1084588,13.192337 c 0.1574011,-0.04223 2.2872393,-0.363488 4.7329739,-0.713917 5.5137013,-0.790015 5.3818453,-0.769294 5.6500493,-0.887889 0.4682,-0.20703 0.285084,0.127374 3.171908,-5.7925069 0.968624,-1.9863148 1.835924,-3.7305751 1.927332,-3.8761339 0.36095,-0.57478 1.109714,-1.09493756 1.770475,-1.22992988 0.371523,-0.0759016 1.02107,-0.0657093 1.36306,0.0213883 0.647513,0.16490759 1.300065,0.62403598 1.656638,1.16559178 0.132997,0.2019933 2.54559,5.0954105 4.42441,8.9739466 0.211652,0.436925 0.277853,0.529397 0.463103,0.646879 0.118881,0.07539 0.319806,0.161067 0.4465,0.190389 0.126693,0.02932 2.386185,0.362283 5.021092,0.739915 2.634908,0.377632 4.912352,0.712073 5.060988,0.743202 0.772432,0.16177 1.481299,0.722903 1.82497,1.444629 0.140305,0.294647 0.140384,0.295388 0.140423,1.304989 l 3.9e-5,1.010175 -0.174924,0.29049 c -0.09621,0.15977 -0.26757,0.394639 -0.380803,0.521929 -0.113233,0.127291 -1.676267,1.59551 -3.473409,3.26271 -1.797142,1.6672 -3.44132,3.19992 -3.653728,3.406045 -0.404066,0.392113 -0.619741,0.74533 -0.620606,1.016386 -2.46e-4,0.08264 0.388335,2.337974 0.863555,5.011852 0.47522,2.673878 0.875491,5.049541 0.889491,5.27925 0.0615,1.009164 -0.373117,1.855477 -1.262169,2.457752 -0.452881,0.306798 -0.86567,0.447417 -1.402176,0.47766 -0.853982,0.04814 -0.722751,0.106998 -5.721936,-2.566315 -3.006153,-1.607538 -4.53257,-2.39796 -4.686247,-2.42667 -0.315238,-0.05889 -0.62144,0.0091 -1.059857,0.23518 -0.204535,0.105496 -2.21816,1.168395 -4.474722,2.361999 -2.256561,1.193604 -4.257617,2.221729 -4.44679,2.284721 -0.4013115,0.133634 -0.9183007,0.182152 -1.305677,0.122536 z m 5.55547,-3.800041 c 5.033019,-2.632845 4.89163,-2.570767 5.747264,-2.523381 0.257878,0.01428 0.579425,0.06082 0.714548,0.103424 0.135124,0.0426 2.250688,1.114384 4.701254,2.381739 2.450567,1.267355 4.526783,2.329105 4.613814,2.359444 0.08703,0.03034 0.257402,0.05516 0.3786,0.05516 0.379451,0 0.603094,-0.0974 0.899693,-0.39183 0.221544,-0.219924 0.286802,-0.322685 0.336513,-0.529903 0.07299,-0.304238 0.17036,0.312285 -0.886571,-5.613328 -0.857355,-4.806698 -0.885378,-5.028411 -0.711092,-5.62605 0.152844,-0.524111 0.304677,-0.733461 1.008345,-1.390324 0.366225,-0.341865 2.127853,-2.042467 3.914729,-3.779115 3.516423,-3.417579 3.458172,-3.352339 3.458172,-3.873095 0,-0.325479 -0.123677,-0.708878 -0.296177,-0.91815 C 37.980163,14.750914 37.92521,14.738136 34.529457,14.249396 26.779898,13.134026 27.519636,13.26099 26.864272,12.93379 26.625602,12.81463 26.406213,12.647532 26.147533,12.387885 25.823439,12.062578 25.735728,11.933477 25.476039,11.399505 22.680131,5.6505901 21.215506,2.7077984 21.07818,2.5631304 20.735453,2.2020783 20.107638,2.0827373 19.68847,2.298961 19.263657,2.5180961 19.237514,2.56526 17.013517,7.1246907 c -1.166615,2.3916852 -2.195029,4.4811853 -2.285364,4.6433333 -0.357634,0.641938 -1.014316,1.196322 -1.657366,1.39918 -0.16967,0.05352 -1.557768,0.275833 -3.084663,0.494019 -5.9265685,0.84688 -7.1563169,1.031833 -7.3542097,1.106071 -0.247293,0.09277 -0.5761232,0.436415 -0.7186102,0.750987 -0.141049,0.311398 -0.1457432,0.80113 -0.010019,1.045305 0.054049,0.09724 1.7013271,1.729698 3.6606172,3.627688 1.9592901,1.89799 3.6653082,3.561586 3.7911514,3.696881 0.4245309,0.456417 0.6778643,1.098311 0.6794803,1.721657 3.94e-4,0.154169 -0.3988775,2.531113 -0.8872825,5.282099 -0.584745,3.293633 -0.8812275,5.077303 -0.8681524,5.222903 0.025553,0.284556 0.1469136,0.536557 0.3680576,0.764263 0.2697521,0.277754 0.5133851,0.371505 0.9218382,0.354723 l 0.3444759,-0.01415 z"
         id="path9198"
         inkscape:connector-curvature="0" /></g></g></svg>