<?xml version="1.0" encoding="UTF-8" standalone="no"?>
<!-- Generator: Adobe Illustrator 21.1.0, SVG Export Plug-In . SVG Version: 6.00 Build 0)  -->

<svg
   xmlns:dc="http://purl.org/dc/elements/1.1/"
   xmlns:cc="http://creativecommons.org/ns#"
   xmlns:rdf="http://www.w3.org/1999/02/22-rdf-syntax-ns#"
   xmlns:svg="http://www.w3.org/2000/svg"
   xmlns="http://www.w3.org/2000/svg"
   xmlns:xlink="http://www.w3.org/1999/xlink"
   xmlns:sodipodi="http://sodipodi.sourceforge.net/DTD/sodipodi-0.dtd"
   xmlns:inkscape="http://www.inkscape.org/namespaces/inkscape"
   version="1.1"
   id="Ebene_1"
   x="0px"
   y="0px"
   viewBox="0 0 48.1 28.8"
   style="enable-background:new 0 0 48.1 28.8;"
   xml:space="preserve"
   sodipodi:docname="view.svg"
   inkscape:version="0.92.2 (5c3e80d, 2017-08-06)"><metadata
     id="metadata8652"><rdf:RDF><cc:Work
         rdf:about=""><dc:format>image/svg+xml</dc:format><dc:type
           rdf:resource="http://purl.org/dc/dcmitype/StillImage" /><dc:title></dc:title></cc:Work></rdf:RDF></metadata><defs
     id="defs8650" /><sodipodi:namedview
     pagecolor="#ffffff"
     bordercolor="#666666"
     borderopacity="1"
     objecttolerance="10"
     gridtolerance="10"
     guidetolerance="10"
     inkscape:pageopacity="0"
     inkscape:pageshadow="2"
     inkscape:window-width="1920"
     inkscape:window-height="1003"
     id="namedview8648"
     showgrid="false"
     inkscape:zoom="7.0478173"
     inkscape:cx="24.049999"
     inkscape:cy="14.4"
     inkscape:window-x="-9"
     inkscape:window-y="-9"
     inkscape:window-maximized="1"
     inkscape:current-layer="Ebene_1" /><style
     type="text/css"
     id="style8625">
	.st0{clip-path:url(#SVGID_2_);fill:#F9B115;}
	.st1{fill:#F9B115;}
</style><g
     id="g8645"
     style="fill:#999999"><g
       id="g8639"
       style="fill:#999999"><g
         id="g8637"
         style="fill:#999999"><g
           id="g8635"
           style="fill:#999999"><defs
             id="defs8628"><rect
               id="SVGID_1_"
               x="0.1"
               width="48"
               height="28.8" /></defs><clipPath
             id="SVGID_2_"><use
               xlink:href="#SVGID_1_"
               style="overflow:visible;"
               id="use8630" /></clipPath><path
             class="st0"
             d="M40.9,7.8c-9.5-9.5-25-9.5-34.5,0L0,14.2l6.5,6.5c4.8,4.8,11,7.1,17.2,7.1c6.3,0,12.5-2.4,17.3-7.1l6.4-6.4      L40.9,7.8z M40,19.6c-8.9,8.9-23.3,8.9-32.2,0l-5.4-5.4L7.6,9c8.9-8.9,23.3-8.9,32.2,0l5.4,5.4L40,19.6z"
             clip-path="url(#SVGID_2_)"
             id="path8633"
             style="fill:#999999" /></g></g></g><path
       class="st1"
       d="M23,7.9c-3.1,0-5.6,2.5-5.6,5.6c0,0.4,0.4,0.8,0.8,0.8c0.4,0,0.8-0.4,0.8-0.8c0-2.2,1.8-4,4-4   c0.4,0,0.8-0.4,0.8-0.8C23.8,8.2,23.4,7.9,23,7.9L23,7.9z"
       id="path8641"
       style="fill:#999999" /><path
       class="st1"
       d="M23.8,3.9c-5.7,0-10.4,4.7-10.4,10.4s4.7,10.4,10.4,10.4S34.2,20,34.2,14.3C34.2,8.5,29.5,3.9,23.8,3.9   L23.8,3.9z M23.8,23c-4.9,0-8.8-3.9-8.8-8.8c0-4.9,3.9-8.8,8.8-8.8c4.9,0,8.8,3.9,8.8,8.8S28.6,23,23.8,23L23.8,23z"
       id="path8643"
       style="fill:#999999" /></g></svg>